<?xml version="1.0" encoding="UTF-8" standalone="no"?>
<svg
   xmlns="http://www.w3.org/2000/svg"
   version="1.1"
   viewBox="0 -32 512 512"
   id="svg2">
  <defs
     id="defs10" />
  <g
     transform="matrix(0.85195071,0,0,-0.85195071,2.1927128,401.70782)"
     id="g4"
     style="fill:#ffffff">
    <path
       d="m 290,61 -24,0 Q 238,61 214.5,71.5 191,82 174.5,100 158,118 149,142.5 140,167 140,195 l 0,97 q 0,11 7.5,19.5 7.5,8.5 20.5,8.5 l 215,0 q 11,0 19,-8.5 8,-8.5 8,-19.5 l 0,-97 q 0,-28 -8.5,-52.5 Q 393,118 377.5,100 362,82 339.5,71.5 317,61 290,61 Z m -120,228 0,-94 q 0,-43 25.5,-73 Q 221,92 266,92 l 24,0 q 42,0 66.5,30 24.5,30 24.5,73 l 0,94 -211,0 z M 109,1 l -1,2 0,28 1,0 337,0 0,-28 0,-2 -337,0 z m 182,350 q -2,0 -2,2 l 0,63 q 0,1 2,1 l 27,0 1,0 q 1,0 2,-1 l 0,-63 q 0,-1 -2,-1 -1,0 -1,-1 l -27,0 z m -63,0 q -2,0 -2,1 l 0,94 q 0,2 2,2 l 25,0 q 2,0 2,-2 l 0,-94 q 0,-1 -2,-1 l -25,0 z m 213,-206 -25,0 8,31 17,0 q 5,0 8.5,3 3.5,3 3.5,8 l 6,59 q 0,4 -3.5,7.5 -3.5,3.5 -8.5,3.5 l -26,0 0,31 26,0 q 17,0 29.5,-12.5 Q 489,263 489,246 l -5,-59 q 0,-18 -13,-30 -13,-12 -30,-12 z"
       id="path6"
       style="fill:#ffffff" />
  </g>
</svg>
