<?xml version="1.0" encoding="UTF-8"?>
<svg width="50px" height="27px" viewBox="0 0 50 27" version="1.1" xmlns="http://www.w3.org/2000/svg" xmlns:xlink="http://www.w3.org/1999/xlink">
    <!-- Generator: Sketch 46.2 (44496) - http://www.bohemiancoding.com/sketch -->
    <title>turtle</title>
    <desc>Created with Sketch.</desc>
    <defs></defs>
    <g id="Page-1" stroke="none" stroke-width="1" fill="none" fill-rule="evenodd">
        <g id="Artboard" transform="translate(-2.000000, -2.000000)" stroke="#E98F0E" stroke-width="2">
            <g id="turtle" transform="translate(26.500000, 15.500000) scale(-1, 1) translate(-26.500000, -15.500000) translate(2.000000, 3.000000)">
                <path d="M28.1246065,0 C25.167541,0 22.4188078,0.900113573 20.1290323,2.44158873 L24.8351492,8.51612903 L31.4936374,8.51612903 L36.3870968,2.62768169 C34.0450032,0.973385761 31.1982128,0 28.1246065,0 Z" id="Stroke-3"></path>
                <path d="M14.4099949,18.0823929 C13.4222926,19.1181117 12.4604007,20.300473 11.7053573,22.0294887 C11.1630961,23.2706749 13.1287551,24.5106261 14.4099949,24.7400294 C16.3332187,25.0845976 17.9460593,22.7164636 18.1448985,22.4098721 C18.7738487,21.4391533 19.1893045,19.0785148 18.7354489,18.4930315 C18.1448985,17.731209 14.6267105,17.8551419 14.4099949,18.0823929 Z" id="Stroke-7"></path>
                <path d="M42.4900873,18.3203766 C42.4154946,17.9347957 37.9582551,18.0476411 37.9582551,18.0476411 C37.9582551,18.0476411 37.8758105,22.1423632 38.0246687,22.8000647 C38.1735269,23.4577661 39.1595897,24.9321366 41.5099134,24.998245 C43.8599098,25.0640459 44.9032258,23.2606709 44.9032258,22.7570173 C44.9032258,22.2533638 42.56468,18.7056501 42.4900873,18.3203766 Z" id="Stroke-11" fill="#FFFFFF"></path>
                <path d="M14.5187394,9.56600938 C13.6630199,9.51153431 11.6254098,9.1954522 11.0421391,8.32860176 C10.3328769,7.273939 11.2065038,6.22814428 10.8275697,4.92771026 C10.2238334,2.8560739 6.70118541,1.03400938 3.81744909,2.02311202 C1.04403534,2.97452551 -0.541412062,6.32157537 0.169129313,7.2657044 C0.875513604,8.20413255 4.02466367,7.00251378 4.17527798,7.47853724 C4.25937896,7.7445783 3.22746311,7.97293021 2.88754165,8.75363402 C2.25246732,10.2127425 4.39144628,12.7822557 6.4642317,14.0671707 C8.79283759,15.5110768 10.6919878,15.5290869 11.9164086,15.4074681" id="Stroke-15"></path>
                <path d="M47.9895217,9.39359203 C48.254536,10.1596069 44.6770757,15.0840228 44.6770757,14.6841988 C44.6770757,14.4176494 44.1418183,13.2794395 43.0713035,11.2695691 C46.1732405,9.50824117 47.8126466,8.88291548 47.9895217,9.39359203 Z" id="Stroke-19"></path>
                <path d="M41.702597,8.12903226 C42.704968,9.76814549 43.5011386,13.7604941 43.3320971,13.9354839 L33.6160128,13.9354839 L31.7419355,8.36759751 C34.565215,4.92304962 35.9768548,2.96362004 35.9768548,2.48930877 C35.9768548,1.77784186 40.4510801,6.08297329 41.702597,8.12903226 Z" id="Stroke-23"></path>
                <path d="M14.7659848,8.25623766 C13.7073342,9.85428439 13.0132884,13.7623475 13.1848789,13.9354839 L23.0474676,13.9354839 L24.7741935,8.49227607 L20.1127776,2.4806749 C17.8279273,3.82810836 16.6577635,5.40057331 14.7659848,8.25623766 Z" id="Stroke-27"></path>
                <path d="M43.0224272,17.8064516 L13.4933906,17.8064516 C12.4589825,17.8064516 11.6129032,16.9354518 11.6129032,15.8709677 C11.6129032,14.8064836 12.4589825,13.9354839 13.4933906,13.9354839 L43.0224272,13.9354839 C44.0568353,13.9354839 44.9032258,14.8064836 44.9032258,15.8709677 C44.9032258,16.9354518 44.0568353,17.8064516 43.0224272,17.8064516 Z" id="Stroke-31"></path>
            </g>
        </g>
    </g>
</svg>